<?xml version="1.0" encoding="utf-8"?>
<!-- Generator: Adobe Illustrator 22.1.0, SVG Export Plug-In . SVG Version: 6.00 Build 0)  -->
<svg version="1.1" id="account" xmlns="http://www.w3.org/2000/svg" xmlns:xlink="http://www.w3.org/1999/xlink" x="0px" y="0px"
	 viewBox="0 0 87.2 87.2" style="enable-background:new 0 0 87.2 87.2;" xml:space="preserve">
<style type="text/css">
	.st0{fill:#FFFFFF;}
</style>
<path class="st0" d="M43.6,87.2C19.6,87.2,0,67.6,0,43.6S19.6,0,43.6,0s43.6,19.6,43.6,43.6S67.6,87.2,43.6,87.2z M43.6,81.8
	c8.2,0,16.4-2.7,22.4-7.6c-1.1-1.6-3.3-4.9-6-8.2c-2.2-2.2-4.9-4.4-7.6-6.5c-2.7,1.6-5.5,2.7-8.7,2.7c-3.3,0-6-1.1-8.7-2.7
	c-2.2,1.6-5.5,4.4-7.6,6.5c-3.3,3.3-4.9,6-6,8.2C27.3,79,35.4,81.8,43.6,81.8z M57.2,39.8c0-9.8-6-18-13.6-18S30,30,30,39.8
	s6,17.4,13.6,17.4S57.2,49.1,57.2,39.8z M43.6,5.5C22.4,5.5,5.5,22.4,5.5,43.6c0,10.9,4.4,20.7,11.4,27.3c1.1-1.6,2.7-4.9,6-8.2
	c2.2-2.2,4.9-4.4,7.1-6.5c-3.3-3.8-5.5-9.8-5.5-16.4c0-13.1,8.7-23.4,19.1-23.4s19.1,10.4,19.1,22.9c0,6.5-2.2,12.5-6,16.9
	c2.2,1.6,4.9,4.4,7.1,6.5c3.3,3.3,5.5,6.5,6,8.2c7.6-6.5,12-16.4,12-27.3C81.8,22.4,64.9,5.5,43.6,5.5z"/>
</svg>
