<?xml version="1.0" encoding="utf-8"?>
<!-- Generator: Adobe Illustrator 22.1.0, SVG Export Plug-In . SVG Version: 6.00 Build 0)  -->
<svg version="1.1" id="cart" xmlns="http://www.w3.org/2000/svg" xmlns:xlink="http://www.w3.org/1999/xlink" x="0px" y="0px"
	 viewBox="0 0 93.5 124.6" style="enable-background:new 0 0 93.5 124.6;" xml:space="preserve">
<style type="text/css">
	.st0{fill:#FFFFFF;}
</style>
<path class="st0" d="M85.7,124.6H7.8c-4.7,0-7.8-3.1-7.8-7.8V31.2c0-4.7,3.1-7.8,7.8-7.8h15.6v-3.9C23.4,8.6,31.9,0,42.8,0h7.8
	c10.9,0,19.5,8.6,19.5,19.5v3.9h15.6c4.7,0,7.8,3.1,7.8,7.8v85.7C93.5,121.5,90.3,124.6,85.7,124.6z M62.3,19.5
	c0-6.2-5.5-11.7-11.7-11.7h-7.8c-6.2,0-11.7,5.5-11.7,11.7v3.9h31.2V19.5z M85.7,35c0-2.3-1.6-3.9-3.9-3.9H70.1v15.6h-7.8V31.2H31.2
	v15.6h-7.8V31.2H11.7c-2.3,0-3.9,1.6-3.9,3.9v58.4h77.9C85.7,93.5,85.7,35,85.7,35z M85.7,101.2H7.8v11.7c0,2.3,1.6,3.9,3.9,3.9
	h70.1c2.3,0,3.9-1.6,3.9-3.9C85.7,112.9,85.7,101.2,85.7,101.2z"/>
</svg>
