<?xml version="1.0" encoding="utf-8"?>
<!-- Generator: Adobe Illustrator 22.1.0, SVG Export Plug-In . SVG Version: 6.00 Build 0)  -->
<svg version="1.1" id="Calque_1" xmlns="http://www.w3.org/2000/svg" xmlns:xlink="http://www.w3.org/1999/xlink" x="0px" y="0px"
	 viewBox="0 0 20.4 20.4" style="enable-background:new 0 0 20.4 20.4;" xml:space="preserve">
<style type="text/css">
	.st0{fill:#FFFFFF;}
</style>
<title>Combined Shape</title>
<desc>Created with Sketch.</desc>
<g id="Symbols">
	<g id="Footer" transform="translate(-145.000000, -255.000000)">
		<g id="Nous-contacter">
			<g transform="translate(144.000000, 141.000000)">
				<g id="Réseaux" transform="translate(1.000000, 114.000000)">
					<path id="Combined-Shape" class="st0" d="M13.1,19.1v-7h2l1-3h-3v-1c0.2-1,0.4-1.5,2-2h1v-2c-0.3,0.1-1.1,0-2,0
						c-2.2,0-3.6,1.2-4,4v1h-2v3h2v7h-8c-0.6,0-1-0.4-1-1v-16c0-0.6,0.4-1,1-1h16c0.6,0,1,0.4,1,1v16c0,0.6-0.4,1-1,1H13.1z"/>
				</g>
			</g>
		</g>
	</g>
</g>
</svg>
