<?xml version="1.0" encoding="utf-8"?>
<!-- Generator: Adobe Illustrator 22.1.0, SVG Export Plug-In . SVG Version: 6.00 Build 0)  -->
<svg version="1.1" id="Calque_1" xmlns="http://www.w3.org/2000/svg" xmlns:xlink="http://www.w3.org/1999/xlink" x="0px" y="0px"
	 viewBox="0 0 98.1 98.1" style="enable-background:new 0 0 98.1 98.1;" xml:space="preserve">
<style type="text/css">
	.st0{fill:#EBA62B;}
	.st1{clip-path:url(#SVGID_2_);}
	.st2{font-family:'Futura-Medium';}
	.st3{font-size:32.7613px;}
	.st4{clip-path:url(#SVGID_2_);fill:none;stroke:#000000;stroke-width:0.25;stroke-miterlimit:10;}
</style>
<rect class="st0" width="98.1" height="98.1"/>
<g>
	<defs>
		<rect id="SVGID_1_" x="-0.3" y="0.4" width="98.1" height="98.1"/>
	</defs>
	<clipPath id="SVGID_2_">
		<use xlink:href="#SVGID_1_"  style="overflow:visible;"/>
	</clipPath>
	<g class="st1">
		<text transform="matrix(1 -7.811046e-04 7.811046e-04 1 8.4548 90.6596)" class="st2 st3">m</text>
	</g>
	<g class="st1">
		<text transform="matrix(1 -7.811046e-04 7.811046e-04 1 34.3728 90.6413)" class="st2 st3">i</text>
	</g>
	<g class="st1">
		<text transform="matrix(1 -7.811046e-04 7.811046e-04 1 42.531 90.6349)" class="st2 st3">a</text>
	</g>
	<g class="st1">
		<text transform="matrix(1 -7.811046e-04 7.811046e-04 1 62.1833 90.6196)" class="st2 st3">m</text>
	</g>
	<path class="st1" d="M82.4,47.9c0-8.8-3.8-17.3-10-23.5c-5-5-11.4-8.5-18.5-9.7c0.3-0.3,0.3-0.9,0.3-1.5c0-2.9-2.3-5.6-5.3-5.6
		c-2.9,0-5.6,2.4-5.6,5.3v1.5c-7,0.9-13.8,4.7-18.8,9.7c-6.4,6.2-9.7,14.7-10,23.5h-3.2v12.1H86V47.6L82.4,47.9z M48.5,12
		c0.6,0,1.2,0.6,1.2,1.2c0,0.6-0.6,1.2-1.2,1.2s-1.2-0.6-1.2-1.2C47.3,12.6,47.9,12,48.5,12 M48.2,18.7c16.1,0,29.3,12.9,29.6,29.4
		l-59.2-0.3C19.1,31.4,32,18.7,48.2,18.7 M81.3,55.5H15.9v-3.2h1.2h2.1l59.2,0.3H81h0.6L81.3,55.5z"/>
	<path class="st4" d="M82.7,48c0-8.9-3.8-17.5-10-23.7c-5-5-11.5-8.6-18.6-9.8c0.3-0.3,0.3-0.9,0.3-1.5c0-3-2.4-5.6-5.3-5.6
		c-3,0-5.6,2.4-5.6,5.3v1.5c-7.1,0.9-13.9,4.7-18.9,9.8c-6.5,6.2-9.7,14.8-10,23.7h-3.2v12.2h74.9V47.7L82.7,48z M48.5,11.8
		c0.6,0,1.2,0.6,1.2,1.2c0,0.6-0.6,1.2-1.2,1.2s-1.2-0.6-1.2-1.2C47.3,12.4,47.9,11.8,48.5,11.8z M48.2,18.6
		c16.2,0,29.5,13.1,29.8,29.7L18.4,48C19,31.4,31.9,18.6,48.2,18.6z M81.5,55.7H15.7v-3.3h1.2H19l59.6,0.3h2.7h0.6L81.5,55.7z"/>
</g>
</svg>
