<?xml version="1.0" encoding="utf-8"?>
<!-- Generator: Adobe Illustrator 22.1.0, SVG Export Plug-In . SVG Version: 6.00 Build 0)  -->
<svg version="1.1" id="Calque_1" xmlns="http://www.w3.org/2000/svg" xmlns:xlink="http://www.w3.org/1999/xlink" x="0px" y="0px"
	 viewBox="0 0 20.2 20.2" style="enable-background:new 0 0 20.2 20.2;" xml:space="preserve">
<style type="text/css">
	.st0{fill:#FFFFFF;}
</style>
<title>Shape</title>
<desc>Created with Sketch.</desc>
<g id="Symbols">
	<g id="Footer" transform="translate(-177.000000, -255.000000)">
		<g id="Nous-contacter">
			<g transform="translate(144.000000, 141.000000)">
				<g id="Réseaux" transform="translate(1.000000, 114.000000)">
					<g id="instagram" transform="translate(32.000000, 0.000000)">
						<path id="Shape" class="st0" d="M7.2,10.2c0-1.7,1.3-3,3-3s3,1.3,3,3s-1.3,3-3,3S7.2,11.8,7.2,10.2 M5.5,10.2
							c0,2.6,2.1,4.6,4.6,4.6s4.6-2.1,4.6-4.6s-2.1-4.6-4.6-4.6S5.5,7.6,5.5,10.2 M13.9,5.4c0,0.6,0.5,1.1,1.1,1.1
							c0.6,0,1.1-0.5,1.1-1.1c0-0.6-0.5-1.1-1.1-1.1S13.9,4.8,13.9,5.4 M6.5,17.5c-0.9,0-1.4-0.2-1.7-0.3c-0.4-0.2-0.7-0.4-1-0.7
							c-0.3-0.3-0.5-0.6-0.7-1c-0.1-0.3-0.3-0.8-0.3-1.7c0-0.9-0.1-1.2-0.1-3.6s0-2.7,0.1-3.6c0-0.9,0.2-1.4,0.3-1.7
							c0.2-0.4,0.4-0.7,0.7-1c0.3-0.3,0.6-0.5,1-0.7C5.2,3,5.6,2.9,6.5,2.8c0.9,0,1.2-0.1,3.6-0.1c2.4,0,2.7,0,3.6,0.1
							c0.9,0,1.4,0.2,1.7,0.3c0.4,0.2,0.7,0.4,1,0.7c0.3,0.3,0.5,0.6,0.7,1c0.1,0.3,0.3,0.8,0.3,1.7c0,0.9,0.1,1.2,0.1,3.6
							c0,2.4,0,2.7-0.1,3.6c0,0.9-0.2,1.4-0.3,1.7c-0.2,0.4-0.4,0.7-0.7,1c-0.3,0.3-0.6,0.5-1,0.7c-0.3,0.1-0.8,0.3-1.7,0.3
							c-0.9,0-1.2,0.1-3.6,0.1C7.8,17.5,7.5,17.5,6.5,17.5 M4.3,1.6c-0.6,0.2-1.1,0.5-1.6,1c-0.5,0.5-0.8,1-1,1.6
							C1.4,4.8,1.3,5.5,1.2,6.4c0,1-0.1,1.3-0.1,3.7s0,2.8,0.1,3.7c0,1,0.2,1.6,0.4,2.2c0.2,0.6,0.5,1.1,1,1.6c0.5,0.5,1,0.8,1.6,1
							c0.6,0.2,1.2,0.4,2.2,0.4c1,0,1.3,0.1,3.7,0.1c2.4,0,2.8,0,3.7-0.1c1,0,1.6-0.2,2.2-0.4c0.6-0.2,1.1-0.5,1.6-1
							c0.5-0.5,0.8-1,1-1.6c0.2-0.6,0.4-1.2,0.4-2.2c0-1,0.1-1.3,0.1-3.7s0-2.8-0.1-3.7c0-1-0.2-1.6-0.4-2.2c-0.2-0.6-0.5-1.1-1-1.6
							s-1-0.8-1.6-1c-0.6-0.2-1.2-0.4-2.2-0.4c-1,0-1.3-0.1-3.7-0.1c-2.4,0-2.8,0-3.7,0.1C5.5,1.3,4.8,1.4,4.3,1.6z"/>
					</g>
				</g>
			</g>
		</g>
	</g>
</g>
</svg>
