<?xml version="1.0" encoding="utf-8"?>
<!-- Generator: Adobe Illustrator 22.1.0, SVG Export Plug-In . SVG Version: 6.00 Build 0)  -->
<svg version="1.1" id="marker" xmlns="http://www.w3.org/2000/svg" xmlns:xlink="http://www.w3.org/1999/xlink" x="0px" y="0px"
	 viewBox="0 0 114.8 156.5" style="enable-background:new 0 0 114.8 156.5;" xml:space="preserve">
<style type="text/css">
	.st0{fill:#FFFFFF;}
</style>
<path class="st0" d="M65.7,146h22.9c3.1,0,5.2,2.1,5.2,5.2s-2.1,5.2-5.2,5.2H26.1c-3.1,0-5.2-2.1-5.2-5.2s2.1-5.2,5.2-5.2H49
	C33.4,126.2,0,83.5,0,58.4C0,26.1,26.1,0,57.4,0s57.4,26.1,57.4,58.4C114.8,83.5,82.4,126.2,65.7,146z M57.4,10.4
	c-26.1,0-46.9,21.9-46.9,49s46.9,81.4,46.9,81.4s46.9-54.2,46.9-81.4S83.5,10.4,57.4,10.4z M31.3,57.4c0-14.6,11.5-26.1,26.1-26.1
	s26.1,11.5,26.1,26.1S72,83.5,57.4,83.5S31.3,72,31.3,57.4z M73,57.4c0-8.3-7.3-15.6-15.6-15.6S41.7,49,41.7,57.4S49,73,57.4,73
	S73,65.7,73,57.4z"/>
</svg>
