<?xml version="1.0" encoding="utf-8"?>
<!-- Generator: Adobe Illustrator 22.1.0, SVG Export Plug-In . SVG Version: 6.00 Build 0)  -->
<svg version="1.1" id="Calque_1" xmlns="http://www.w3.org/2000/svg" xmlns:xlink="http://www.w3.org/1999/xlink" x="0px" y="0px"
	 viewBox="0 0 128 31" style="enable-background:new 0 0 128 31;" xml:space="preserve">
<style type="text/css">
	.st0{fill:none;}
	.st1{fill:#C18525;}
	.st2{fill:#EAA62F;}
	.st3{stroke:#000000;stroke-width:0.25;stroke-miterlimit:10;}
	.st4{fill:#FFFFFF;}
	.st5{font-family:'Futura-Medium';}
	.st6{font-size:40px;}
</style>
<title>Logo</title>
<desc>Created with Sketch.</desc>
<line class="st0" x1="116.2" y1="16.7" x2="116.8" y2="29.3"/>
<path class="st1" d="M125.4,27.2v-0.6c0.1-6.3-5-11.6-11.4-11.7c-6.3-0.1-11.6,5-11.7,11.4v0.6h-1.2l0.1,2.8l25.4,0.3v-2.8
	L125.4,27.2z"/>
<g>
	
		<rect x="112.4" y="15.8" transform="matrix(1.238173e-02 -0.9999 0.9999 1.238173e-02 83.9655 141.936)" class="st1" width="2.8" height="25.4"/>
	<ellipse class="st1" cx="114" cy="13.7" rx="1.2" ry="1.2"/>
</g>
<path class="st2" d="M114.1,14.9c-6.3-0.1-11.6,5-11.7,11.4v0.6h-1.2l0.1,2.8l12.7,0.2L114.1,14.9z"/>
<g>
	<polygon class="st2" points="113.9,27 102.3,26.9 101.2,26.9 101.2,29.7 113.8,29.8 	"/>
	<path class="st2" d="M114.1,12.5c-0.6,0-1.2,0.5-1.2,1.2c0,0.6,0.5,1.2,1.2,1.2V12.5z"/>
</g>
<g>
	<g>
		<path class="st3" d="M125.4,26.1c0-3-1.2-5.9-3.3-8c-1.7-1.7-3.9-2.9-6.3-3.4c0.1-0.1,0.1-0.3,0.1-0.5c0-1-0.8-1.9-1.8-1.9
			s-1.9,0.8-1.9,1.8c0,0.2,0,0.3,0,0.5c-2.4,0.3-4.7,1.5-6.4,3.2c-2.2,2.1-3.4,5-3.5,8h-1.1l-0.1,4.1l25.4,0.3l0.1-4.1H125.4z
			 M114,13.7c0.2,0,0.4,0.2,0.4,0.4s-0.2,0.4-0.4,0.4c-0.2,0-0.4-0.2-0.4-0.4S113.8,13.7,114,13.7z M113.9,16
			c5.5,0.1,9.9,4.5,10,10.1l-20.2-0.3C103.9,20.2,108.4,15.9,113.9,16z M125,28.6l-22.3-0.3v-1.1h0.4h0.7l20.2,0.3h0.9h0.2L125,28.6
			L125,28.6z"/>
	</g>
</g>
<rect class="st0" width="128" height="31"/>
<text transform="matrix(1 -7.800000e-04 7.800000e-04 1 1.1565 30.5983)" class="st4 st5 st6">miam</text>
</svg>
