<?xml version="1.0" encoding="utf-8"?>
<!-- Generator: Adobe Illustrator 22.1.0, SVG Export Plug-In . SVG Version: 6.00 Build 0)  -->
<svg version="1.1" id="Calque_1" xmlns="http://www.w3.org/2000/svg" xmlns:xlink="http://www.w3.org/1999/xlink" x="0px" y="0px"
	 viewBox="0 0 128 31" style="enable-background:new 0 0 128 31;" xml:space="preserve">
<style type="text/css">
	.st0{fill:none;}
	.st1{fill:#C18525;}
	.st2{fill:#EAA62F;}
	.st3{fill:#FFFFFF;}
	.st4{enable-background:new    ;}
</style>
<title>Logo</title>
<desc>Created with Sketch.</desc>
<line class="st0" x1="116.2" y1="16.7" x2="116.8" y2="29.3"/>
<path class="st1" d="M125.4,27.2v-0.6c0.1-6.3-5-11.6-11.4-11.7c-6.3-0.1-11.6,5-11.7,11.4v0.6h-1.2l0.1,2.8l25.4,0.3v-2.8
	L125.4,27.2z"/>
<g>
	
		<rect x="112.5" y="15.8" transform="matrix(1.238231e-02 -0.9999 0.9999 1.238231e-02 83.9888 141.9844)" class="st1" width="2.8" height="25.4"/>
	<ellipse class="st1" cx="114" cy="13.7" rx="1.2" ry="1.2"/>
</g>
<path class="st2" d="M114.1,14.9c-6.3-0.1-11.6,5-11.7,11.4v0.6h-1.2l0.1,2.8l12.7,0.2L114.1,14.9z"/>
<g>
	<polygon class="st2" points="113.9,27 102.3,26.9 101.2,26.9 101.2,29.7 113.8,29.8 	"/>
	<path class="st2" d="M114.1,12.5c-0.6,0-1.2,0.5-1.2,1.2c0,0.6,0.5,1.2,1.2,1.2V12.5z"/>
</g>
<g>
	<g>
		<path class="st3" d="M125.5,26c0-3-1.3-5.9-3.4-8c-1.7-1.7-4-2.9-6.4-3.3c0.1-0.1,0.1-0.3,0.1-0.5c0-1-0.8-1.9-1.8-1.9
			c-1,0-1.9,0.8-1.9,1.8c0,0.2,0,0.3,0,0.5c-2.4,0.3-4.7,1.6-6.4,3.3c-2.2,2.1-3.4,5-3.4,8h-1.1V30h25.7v-4.1L125.5,26z M113.7,13.7
			c0.2,0,0.4,0.2,0.4,0.4s-0.2,0.4-0.4,0.4c-0.2,0-0.4-0.2-0.4-0.4S113.5,13.7,113.7,13.7z M113.7,16c5.5,0,10,4.4,10.2,10h-20.4
			C103.6,20.3,108.1,16,113.7,16z M125.1,28.5h-22.5v-1.1h0.4h0.7h20.4h0.9h0.2L125.1,28.5L125.1,28.5z"/>
	</g>
</g>
<rect class="st0" width="128" height="31"/>
<g class="st4">
	<path class="st3" d="M3.9,11.6h4.4v1.8c0.8-0.9,1.6-1.5,2.2-1.8c0.6-0.3,1.4-0.5,2.4-0.5c2.1,0,3.8,0.9,5.1,2.8
		c1.4-1.9,3.2-2.8,5.6-2.8c4.3,0,6.4,2.6,6.4,7.8v11.8h-4.4V20.1c0-1.8-0.2-3.1-0.7-3.9c-0.5-0.8-1.2-1.2-2.2-1.1
		c-1.2,0-2.1,0.5-2.6,1.4c-0.6,0.9-0.8,2.4-0.8,4.4v9.8h-4.4V20.2c0-3.4-1-5.1-2.9-5.1c-1.2,0-2.1,0.5-2.7,1.4
		c-0.6,0.9-0.8,2.4-0.8,4.4v9.8H4.1L3.9,11.6z"/>
	<path class="st3" d="M34.9,3.6c0-0.8,0.3-1.4,0.8-2c0.6-0.6,1.2-0.8,2-0.8s1.5,0.3,2,0.8c0.6,0.5,0.8,1.2,0.8,2s-0.3,1.5-0.8,2
		c-0.5,0.6-1.2,0.8-2,0.8s-1.5-0.3-2-0.8S34.9,4.4,34.9,3.6z M40,11.5v19h-4.4v-19H40z"/>
	<path class="st3" d="M59.5,11.5h4.4v19h-4.4v-2c-1.8,1.7-3.8,2.5-5.8,2.5c-2.6,0-4.8-0.9-6.5-2.8s-2.6-4.4-2.6-7.3s0.8-5.2,2.6-7.1
		C48.9,12,51,11,53.6,11c2.2,0,4.2,0.9,6,2.7L59.5,11.5z M49.1,21c0,1.8,0.5,3.3,1.5,4.5s2.3,1.7,3.8,1.7c1.6,0,2.9-0.6,3.9-1.7
		c1-1.2,1.5-2.6,1.5-4.4s-0.5-3.3-1.5-4.4S56,15,54.4,15c-1.5,0-2.8,0.6-3.8,1.7C49.6,17.9,49.1,19.3,49.1,21z"/>
	<path class="st3" d="M69.5,11.5h4.4v1.8c0.8-0.9,1.6-1.5,2.2-1.8s1.4-0.5,2.4-0.5c2.1,0,3.8,0.9,5.1,2.8c1.4-1.9,3.2-2.8,5.6-2.8
		c4.3,0,6.4,2.6,6.4,7.8v11.8h-4.4V20c0-1.8-0.2-3.1-0.7-3.9c-0.5-0.8-1.2-1.2-2.2-1.1c-1.2,0-2.1,0.5-2.6,1.4
		c-0.6,0.9-0.8,2.4-0.8,4.4v9.8h-4.4V20.1c0-3.4-1-5.1-2.9-5.1c-1.2,0-2.1,0.5-2.7,1.4s-0.8,2.4-0.8,4.4v9.8h-4.4L69.5,11.5z"/>
</g>
</svg>
