<?xml version="1.0" encoding="utf-8"?>
<!-- Generator: Adobe Illustrator 22.1.0, SVG Export Plug-In . SVG Version: 6.00 Build 0)  -->
<svg version="1.1" id="time" xmlns="http://www.w3.org/2000/svg" xmlns:xlink="http://www.w3.org/1999/xlink" x="0px" y="0px"
	 viewBox="0 0 153 153" style="enable-background:new 0 0 153 153;" xml:space="preserve">
<style type="text/css">
	.st0{fill:#FFFFFF;}
</style>
<path class="st0" d="M76.5,153C34.7,153,0,118.3,0,76.5S34.7,0,76.5,0S153,34.7,153,76.5S118.3,153,76.5,153z M76.5,10.2
	c-36.7,0-66.3,29.6-66.3,66.3s29.6,66.3,66.3,66.3s66.3-29.6,66.3-66.3S113.2,10.2,76.5,10.2z M71.4,81.6L71.4,81.6V71.4l0,0v-51
	h10.2v51h40.8v10.2H81.6H71.4z M102,30.6h10.2v10.2H102V30.6z M40.8,102H51v10.2H40.8V102z M40.8,30.6H51v10.2H40.8V30.6z
	 M20.4,71.4h10.2v10.2H20.4V71.4z M81.6,132.6H71.4v-10.2h10.2V132.6z M112.2,112.2H102V102h10.2V112.2z"/>
</svg>
